<?xml version="1.0" encoding="UTF-8" standalone="no"?>
<svg
   xmlns:dc="http://purl.org/dc/elements/1.1/"
   xmlns:cc="http://creativecommons.org/ns#"
   xmlns:rdf="http://www.w3.org/1999/02/22-rdf-syntax-ns#"
   xmlns:svg="http://www.w3.org/2000/svg"
   xmlns="http://www.w3.org/2000/svg"
   version="1.1"
   fill="#AAAAAA"
   viewBox="0 0 240.90001 308.20001"
   id="Layer_1">
  <path
     id="path3713"
     d="m 28.2,308.2 h 184.5 c 15.6,0 28.2,-12.7 28.2,-28.2 V 28.2 C 240.9,12.6 228.2,0 212.7,0 H 124.3 C 110.7,0 97.900002,5.3 88.2,14.9 l -6.9,6.9 -9.1,-9.1 c -7,-7 -18.3,-7 -25.3,0 L 11,48.6 c -7,7 -7,18.3 0,25.3 l 9.1,9.1 -5.2,5.2 C 5.3,97.8 0,110.6 0,124.3 v 155.6 c 0,15.6 12.6,28.3 28.2,28.3 z M 21.8,59.4 57.7,23.5 c 0.5,-0.5 1.2,-0.8 1.9,-0.8 0.7,0 1.4,0.3 1.9,0.8 l 9.1,9.1 -39.7,39.7 -9.1,-9.1 c -1.1,-1 -1.1,-2.7 0,-3.8 z m -6.7,64.9 c 0,-9.6 3.7,-18.6 10.5,-25.300002 L 30.8,93.8 30.9,93.9 92.1,32.7 92,32.6 98.900002,25.7 C 105.7,18.9 114.7,15.2 124.2,15.2 h 88.4 c 7.2,0 13,5.8 13,13 v 251.7 c 0,7.2 -5.8,13 -13,13 H 28.2 c -7.2,0 -13,-5.8 -13,-13 V 124.3 Z" />
  <path
     id="path3715"
     d="m 117.1,76.7 h 77.4 c 8.4,0 15.2,-6.8 15.2,-15.2 V 44.9 c 0,-8.4 -6.8,-15.2 -15.2,-15.2 h -77.4 c -8.4,0 -15.2,6.8 -15.2,15.2 v 16.6 c 0.1,8.4 6.9,15.2 15.2,15.2 z m 0,-31.8 h 77.4 V 61.5 H 117.1 Z M 107.5,182 c 1.7,2.1 1.7,5.1 0,7.1 l -61.8,74.1 c -2,2.4 -1.7,5.9 0.7,7.9 l 3.1,2.6 c 0.3,0.2 0.6,0.4 0.9,0.6 0,0 0,0 0,0 0.3,0.2 0.6,0.3 1,0.4 0,0 0.1,0 0.1,0 0.3,0.1 0.6,0.1 0.9,0.2 0.1,0 0.1,0 0.2,0 0.1,0 0.3,0 0.4,0 0.2,0 0.3,0 0.5,0 1.5,-0.1 2.8,-0.8 3.8,-2 L 116,202.5 c 1.1,-1.3 2.6,-2 4.3,-2 1.7,0 3.2,0.7 4.3,2 l 58.7,70.4 c 1,1.1 2.3,1.9 3.8,2 0.2,0 0.3,0 0.5,0 0.1,0 0.3,0 0.4,0 0.1,0 0.1,0 0.2,0 0.3,0 0.6,-0.1 0.9,-0.2 0,0 0.1,0 0.1,0 0.3,-0.1 0.7,-0.2 1,-0.4 0,0 0,0 0,0 0.3,-0.2 0.7,-0.4 0.9,-0.6 l 3.1,-2.6 c 2.4,-2 2.7,-5.5 0.7,-7.9 l -61.6,-74.1 c -1.7,-2.1 -1.7,-5.1 0,-7.1 l 61.8,-74.1 c 2,-2.4 1.7,-5.9 -0.7,-7.900002 L 191.3,97.4 c -0.6,-0.5 -1.2,-0.8 -1.9,-1 0,0 -0.1,0 -0.1,0 -0.3,-0.1 -0.6,-0.1 -0.9,-0.2 -0.1,0 -0.1,0 -0.2,0 -0.1,0 -0.3,0 -0.5,0 -0.2,0 -0.3,0 -0.5,0 -1.5,0.1 -2.8,0.8 -3.8,2 l -58.7,70.4 c -1.1,1.3 -2.6,2 -4.3,2 -1.7,0 -3.2,-0.7 -4.3,-2 L 57.4,98.2 c -1,-1.2 -2.3,-1.9 -3.8,-2 -1.5,-0.1 -2.9,0.3 -4.1,1.3 l -3.1,2.6 c -2.4,2 -2.7,5.5 -0.7,7.9 z m -54.4,92.9 c -0.1,0 -0.1,0 -0.2,0 0.2,0 0.3,0 0.5,0 -0.1,0 -0.2,0 -0.3,0 z m 134.7,0 c -0.1,0 -0.1,0 -0.2,0 -0.1,0 -0.2,0 -0.3,0 0.2,0 0.4,0 0.5,0 z" />
</svg>
