<svg id="Capa_1" enable-background="new 0 0 512 512" height="512" viewBox="0 0 512 512" width="512" xmlns="http://www.w3.org/2000/svg"><g><g><path d="m481.701 385.951h-451.402c-12.592 0-22.8-10.208-22.8-22.8v-214.302c0-12.592 10.208-22.8 22.8-22.8h451.402c12.592 0 22.8 10.208 22.8 22.8v214.302c0 12.592-10.208 22.8-22.8 22.8z" fill="#c1e9af"/></g><g><path d="m504.5 148.848v214.303c0 12.589-10.209 22.798-22.798 22.798h-21.518c12.589 0 22.798-10.209 22.798-22.798v-214.303c0-12.589-10.209-22.798-22.798-22.798h21.518c12.589 0 22.798 10.21 22.798 22.798z" fill="#ade194"/></g><g><g><g><path d="m421.373 304.396c-4.266.001-8.502-1.809-11.469-5.325-5.343-6.33-4.543-15.793 1.788-21.136l26.505-22.371-26.278-21.311c-6.434-5.217-7.42-14.663-2.202-21.097 5.217-6.434 14.662-7.421 21.096-2.202l40.359 32.729c3.472 2.815 5.507 7.033 5.551 11.502s-1.908 8.726-5.324 11.609l-40.359 34.065c-2.815 2.375-6.25 3.537-9.667 3.537z" fill="#97da7b"/></g></g><g><g><path d="m90.627 304.396c-3.417 0-6.852-1.161-9.667-3.537l-40.359-34.065c-3.416-2.884-5.368-7.14-5.324-11.609.043-4.469 2.079-8.687 5.551-11.502l40.359-32.729c6.434-5.218 15.879-4.231 21.096 2.202 5.218 6.434 4.232 15.88-2.202 21.097l-26.278 21.311 26.505 22.371c6.331 5.343 7.131 14.806 1.788 21.136-2.966 3.515-7.204 5.325-11.469 5.325z" fill="#97da7b"/></g></g></g><g><g><g><path d="m476.722 255.18c.04 4.47-1.91 8.729-5.32 11.609l-40.367 34.067c-2.81 2.38-6.25 3.54-9.659 3.54-3.92 0-7.819-1.53-10.719-4.509l39.217-33.097c3.42-2.88 5.37-7.14 5.33-11.609-.05-4.47-2.08-8.679-5.55-11.499l-38.977-31.597c5.36-5.45 14.079-6.04 20.138-1.13l40.357 32.727c3.47 2.819 5.51 7.028 5.55 11.498z" fill="#80d261"/></g></g><g><g><path d="m102.092 299.067c-2.96 3.52-7.199 5.329-11.469 5.329-3.41 0-6.849-1.16-9.659-3.54l-1.14-.97c.26-.26.51-.53.75-.82 5.35-6.33 4.55-15.789-1.79-21.128l-16.612-14.029c-5.132-4.334-5.053-12.269.165-16.5l16.227-13.158c6.429-5.22 7.419-14.659 2.2-21.098-.31-.38-.63-.74-.97-1.08l1.39-1.12c6.439-5.22 15.879-4.23 21.098 2.2 5.22 6.439 4.23 15.879-2.2 21.098l-26.277 21.309 26.508 22.378c6.329 5.34 7.129 14.799 1.779 21.129z" fill="#80d261"/></g></g></g><g><path d="m481.701 118.549h-451.402c-16.706 0-30.299 13.592-30.299 30.3v214.302c0 16.708 13.593 30.3 30.299 30.3h97.224c4.142 0 7.5-3.358 7.5-7.499 0-4.142-3.357-7.499-7.5-7.499h-97.224c-8.437 0-15.301-6.864-15.301-15.301v-214.303c0-8.437 6.864-15.301 15.301-15.301h451.401c8.437 0 15.301 6.864 15.301 15.301v214.302c0 8.437-6.864 15.301-15.301 15.301h-319.02c-4.142 0-7.499 3.358-7.499 7.499 0 4.142 3.357 7.499 7.499 7.499h319.021c16.707 0 30.299-13.592 30.299-30.3v-214.301c0-16.708-13.593-30.3-30.299-30.3z"/><path d="m305.067 295.683v-79.367c0-4.142-3.357-7.499-7.5-7.499-4.142 0-7.499 3.358-7.499 7.499v79.367c0 4.142 3.357 7.499 7.499 7.499 4.143.001 7.5-3.357 7.5-7.499z"/><path d="m172.224 224.541c4.142 0 7.499-3.358 7.499-7.499 0-4.142-3.357-7.499-7.499-7.499h-33.136c-4.142 0-7.499 3.358-7.499 7.499v78.642c0 4.142 3.357 7.499 7.499 7.499h33.136c4.142 0 7.499-3.358 7.499-7.499 0-4.142-3.357-7.499-7.499-7.499h-25.637v-24.322h23.193c4.142 0 7.5-3.358 7.5-7.499 0-4.142-3.357-7.499-7.5-7.499h-23.193v-24.322h25.637z"/><path d="m198.237 301.814c1.313.925 2.82 1.369 4.312 1.369 2.357 0 4.677-1.108 6.138-3.181l23.806-33.793 23.77 33.789c1.46 2.076 3.781 3.185 6.14 3.185 1.49 0 2.996-.443 4.308-1.366 3.387-2.383 4.202-7.061 1.818-10.449l-26.861-38.183 22.93-32.549c2.385-3.386 1.573-8.065-1.812-10.45-3.387-2.386-8.065-1.573-10.45 1.812l-19.834 28.156-19.804-28.152c-2.382-3.386-7.058-4.202-10.448-1.819-3.387 2.383-4.202 7.061-1.818 10.449l22.896 32.546-26.901 38.187c-2.387 3.385-1.575 8.064 1.81 10.449z"/><path d="m350.909 303.183c4.142 0 7.499-3.358 7.499-7.499v-71.867h14.504c4.142 0 7.499-3.358 7.499-7.499 0-4.142-3.357-7.499-7.499-7.499h-43.831c-4.142 0-7.5 3.358-7.5 7.499 0 4.142 3.357 7.499 7.5 7.499h14.328v71.867c.001 4.141 3.358 7.499 7.5 7.499z"/><path d="m420.586 215.143c2.003-.204 3.946.373 5.504 1.637l5.633 4.565c3.219 2.608 7.941 2.112 10.548-1.105 2.607-3.218 2.113-7.941-1.105-10.548l-5.63-4.563c-4.668-3.786-10.528-5.528-16.508-4.903-5.977.624-11.354 3.538-15.137 8.206-3.786 4.668-5.527 10.53-4.903 16.508.624 5.977 3.539 11.354 8.206 15.138l19.238 15.601-19.579 16.525c-4.592 3.877-7.401 9.309-7.906 15.297-.507 5.988 1.35 11.815 5.225 16.406 4.284 5.077 10.552 7.988 17.196 7.988h.005c5.298 0 10.449-1.884 14.504-5.305l40.359-34.065c5.141-4.34 8.051-10.687 7.986-17.412-.065-6.727-3.099-13.016-8.326-17.254l-7.733-6.271c-3.217-2.61-7.941-2.115-10.548 1.102-2.609 3.217-2.116 7.939 1.102 10.548l7.733 6.271c1.741 1.413 2.753 3.508 2.774 5.751.022 2.242-.948 4.358-2.662 5.805l-40.358 34.064c-1.732 1.462-3.583 1.769-4.832 1.769h-.001c-2.218 0-4.308-.97-5.736-2.663-1.292-1.531-1.911-3.472-1.742-5.468s1.105-3.807 2.636-5.099l26.505-22.371c1.708-1.442 2.683-3.57 2.662-5.805-.022-2.235-1.04-4.343-2.775-5.751l-26.278-21.311c-1.556-1.262-2.528-3.053-2.736-5.046-.208-1.992.373-3.946 1.636-5.503 1.259-1.558 3.051-2.53 5.043-2.738z"/><path d="m113.011 224.94c.624-5.978-1.117-11.84-4.903-16.508-3.785-4.667-9.161-7.581-15.138-8.205-5.976-.624-11.839 1.117-16.506 4.902l-40.36 32.729c-5.227 4.238-8.261 10.527-8.326 17.253-.065 6.727 2.844 13.074 7.986 17.414l40.36 34.065c4.053 3.421 9.204 5.305 14.503 5.305 6.648 0 12.917-2.911 17.201-7.987 3.876-4.592 5.732-10.419 5.225-16.407-.506-5.988-3.314-11.42-7.906-15.297l-19.579-16.525 19.237-15.601c4.668-3.785 7.582-9.161 8.206-15.138zm-14.917-1.558c-.208 1.992-1.18 3.784-2.737 5.046l-26.277 21.311c-1.735 1.408-2.753 3.516-2.775 5.751-.021 2.235.954 4.363 2.662 5.805l26.505 22.371c1.531 1.292 2.468 3.103 2.636 5.099s-.45 3.938-1.742 5.469c-1.427 1.692-3.519 2.662-5.739 2.662-1.247 0-3.097-.307-4.829-1.768l-40.359-34.064c-1.714-1.447-2.684-3.563-2.662-5.807.021-2.241 1.033-4.337 2.774-5.75l40.361-32.729c1.348-1.094 2.996-1.675 4.708-1.675.264 0 .528.014.793.042 1.993.208 3.785 1.18 5.046 2.735 1.262 1.556 1.843 3.509 1.635 5.502z"/><path d="m57.775 159.915c0-4.142-3.358-7.499-7.5-7.499s-7.499 3.358-7.499 7.499c0 4.142 3.358 7.499 7.499 7.499s7.5-3.357 7.5-7.499z"/><path d="m461.725 167.414c4.142 0 7.499-3.358 7.499-7.499 0-4.142-3.357-7.499-7.499-7.499s-7.5 3.358-7.5 7.499c0 4.142 3.358 7.499 7.5 7.499z"/><path d="m42.776 352.085c0 4.142 3.358 7.499 7.499 7.499s7.5-3.358 7.5-7.499c0-4.142-3.358-7.499-7.5-7.499s-7.499 3.357-7.499 7.499z"/><path d="m454.225 352.085c0 4.142 3.358 7.499 7.5 7.499s7.499-3.358 7.499-7.499c0-4.142-3.357-7.499-7.499-7.499s-7.5 3.357-7.5 7.499z"/></g></g></svg>