<?xml version="1.0" encoding="UTF-8"?>
<!DOCTYPE svg PUBLIC "-//W3C//DTD SVG 1.1//EN" "http://www.w3.org/Graphics/SVG/1.1/DTD/svg11.dtd">
<svg version="1.1" xmlns="http://www.w3.org/2000/svg" xmlns:xlink="http://www.w3.org/1999/xlink" x="0px" y="0px" viewBox="0 0 1000 1000" enable-background="new 0 0 1000 1000" xml:space="preserve">
<g><g transform="translate(0.000000,511.000000) scale(0.100000,-0.100000)"><path fill="#FF0000" d="M4871,4572.7c-146.5-159.6-426.4-754.4-527-1123.9c-45.9-164-45.9-168.4-10.9-981.8c28.4-673.4,30.6-817.8,6.6-833.1c-15.3-10.9-973-435.1-2127.5-944.6L113.1-235.5l-6.6-354.2L100-943.9l61.2,13.1c135.6,26.2,4272.5,564.1,4279,557.6c10.9-10.9,122.4-2704.7,122.4-2895l-2.2-131.2l-478.8-402.3l-481-402.3v-118.1c0-118.1,0-120.3,61.2-107.1c32.8,6.6,295.2,48.1,583.8,91.8l524.8,78.7l91.8-89.7c50.3-52.5,109.3-89.6,137.7-89.6c28.4,0,87.5,37.2,137.8,89.6l89.6,89.7l537.9-80.9c295.2-43.7,557.6-85.3,586-91.8c45.9-10.9,48.1-4.4,48.1,109.3v118.1l-481,402.3l-478.8,402.3l-2.2,131.2c0,196.8,111.5,2884,122.5,2895c6.6,8.7,4145.7-511.7,4279-535.7L9900-922l-6.5,354.2l-6.6,354.2l-2099.1,914c-1154.5,502.9-2112.2,922.7-2127.5,933.7c-24.1,15.3-24.1,159.6,6.5,837.4c32.8,795.9,32.8,824.3-8.7,962.1c-164,564.1-524.8,1224.5-669.1,1224.5C4967.2,4658,4914.7,4618.6,4871,4572.7z"/></g></g>
</svg>