<?xml version="1.0" encoding="utf-8"?>
<!-- Generator: Adobe Illustrator 23.0.1, SVG Export Plug-In . SVG Version: 6.00 Build 0)  -->
<svg version="1.1" id="Layer_1" xmlns="http://www.w3.org/2000/svg" xmlns:xlink="http://www.w3.org/1999/xlink" x="0px" y="0px"
	 viewBox="0 0 512 512" style="enable-background:new 0 0 512 512;" xml:space="preserve">
<style type="text/css">
	.st0{fill:#39B54A;}
	.st1{fill:#5B4531;}
	.st2{fill:#009245;}
	.st3{fill:#6B6256;}
</style>
<g>
	<path class="st0" d="M173.3,126.9c0,0,6.2-44.5,45.2-38.3c0,0,34.8-52.8,74.1-9.7c0,0,34.9-6.8,43.2,32.2c0,0,35.4-8.5,46.7,41.3
		c0,0,29.4,25.4,0,56c0,0,6.1,62.8-46.7,33.9c0,0-9.3,54.7-49.4,7.6s-62.8,6.1-62.8,6.1s-31.1,40-50.3,7.2l3.4-18.1
		c0,0-57.7,45.2-48.1-28.8c0,0-36.2-41.3,1.7-54.8C130.3,161.4,137.1,103.2,173.3,126.9z"/>
	<path class="st1" d="M286.1,252.8c0,0-19.9,55.6-17.8,93.7c2.1,38.2,17.8,98.5,17.8,98.5l-64.9,5.4l10.2-35.2
		c0,0,11.5-45.4,11.5-53c0-7.6-10.2-77.2-10.2-80.6c0-3.4-7.4-28.8-7.4-28.8l13.4-13.6l8.5,11.5l4.7,10.2l4.7,2.6l12.7-16.1
		l10.2-8.1L286.1,252.8z"/>
	<path class="st2" d="M281.9,95.8c0,0,35.6-14.1,44.1,48.1c0,0,19.2-2.8,20.9,14.7c0,0,32.2,27.1-2.3,40.1c0,0,18.7,39-30.5,19.8
		c0,0,6.8,20.4-7.9,13.6L292,256c0,0,19.2,32.4,43,0l0.8-13.7c0,0,36.5,31.7,47.8-17l-1.1-17c0,0,28.8-35.1,0-56
		c0,0-3.5-44.7-46.7-41.3c0,0-24-51.5-43.2-32.2c0,0-46.9-40.7-74.1,5.7C218.5,84.5,212.9,137.7,281.9,95.8z"/>
	<path class="st3" d="M285.8,239.2c0,0-54.9,77.3-7.5,211.2h10.4c0,0-15.1-59.5-16.9-79.8c-1.4-15.6-0.3-47.2,2.1-62.7
		c2.2-14.2,13.2-56,13.2-56L285.8,239.2z"/>
	<g>
		<path d="M175,445h-15.7c-3,0-5.4,2.4-5.4,5.4c0,3,2.4,5.4,5.4,5.4H175c3,0,5.4-2.4,5.4-5.4C180.4,447.4,178,445,175,445z"/>
		<path d="M330.4,445h-3.9c-3,0-5.4,2.4-5.4,5.4c0,3,2.4,5.4,5.4,5.4h3.9c3,0,5.4-2.4,5.4-5.4C335.8,447.4,333.4,445,330.4,445z"/>
		<path d="M401.3,178c-0.6-11.7-6-22.3-14.8-29.9c-1.1-12.4-6.5-24.1-15.4-32c-8.3-7.5-18.8-11.3-29.6-10.7
			c-2.3-9.3-7.2-17.7-14.1-23.9c-8.4-7.5-19-11.3-29.9-10.7c-1.7,0.1-3.3,0.5-4.9,0.8c-9.5-10.5-23.1-16.3-37.5-15.5
			c-15.7,0.8-29.7,9.3-37.7,22.5c-0.9-0.1-1.8-0.3-2.7-0.4c-10.8-0.7-21.5,3.2-29.9,10.7c-6.9,6.2-11.8,14.6-14.1,23.9
			c-10.8-0.6-21.3,3.2-29.6,10.7c-8.9,8-14.4,19.6-15.4,32.1c-8.8,7.6-14.3,18.2-14.8,29.9c-0.6,12.4,4.5,24.2,13.4,32.8
			c-1.2,3.4-2.1,6.9-2.3,10.7c-0.9,19.4,12.9,36,30.7,37c0.6,0,1.2,0.1,1.8,0.1c5.5,0,10.6-1.7,15.2-4.4c2.7,11.2,13.2,20,26.2,20.8
			c0.5,0,1.1,0,1.6,0c9.5,0,18-5.2,24.9-14.9c9,25.6,13.9,54.9,13.9,85.8c0,33.4-5.6,65-16.1,91.9h-24.2c-3,0-5.4,2.4-5.4,5.4
			c0,3,2.4,5.4,5.4,5.4h113.7c3,0,5.4-2.4,5.4-5.4c0-3-2.4-5.4-5.4-5.4h-17.7c-11.4-27.5-17.9-61.4-17.9-96.4
			c0-32.4,5.4-63.1,15.2-89.5c6,9.9,15.1,15.6,25.3,15.6c0.6,0,1.1,0,1.7-0.1c13-0.7,23.4-9.6,26.2-20.8c4.6,2.7,9.8,4.4,15.2,4.4
			c0.6,0,1.2,0,1.8-0.1c17.8-1,31.6-17.6,30.7-37c-0.2-3.7-1.1-7.2-2.2-10.6C396.8,202.2,401.9,190.4,401.3,178z M263.2,348.8
			c0,35.1,6.1,68.1,17.2,96.4h-48.8c10-27.3,15.5-58.7,15.5-91.9c0-35-5.9-68.3-17-96.6c2.5-3.2,5-6.1,7.6-8.6l14,24.7
			c1,1.7,2.6,2.5,4.7,2.8c1.9,0,3.7-1,4.7-2.7l16.4-28.2c1.6,1.3,3,2.8,4.4,4.3c-0.3,0.4-0.7,0.8-0.9,1.3
			C269.3,279,263.2,313,263.2,348.8z M246.2,241.2c4.8-3,9.5-4.5,13.8-4.3c2.8,0.1,5.5,0.8,8.2,1.9l-11.9,20.4L246.2,241.2z
			 M379.4,204c-0.1,0.1-0.3,0-0.4,0.1c-1.3,0.6-2.1,1.7-2.6,2.9c-1.4,1.9-1.5,4.5-0.1,6.5c0.4,0.5,0.9,0.9,1.5,1.2
			c0.8,2.3,1.4,4.7,1.5,7.2c0.6,13.4-8.5,25-20.5,25.6c-8.7,0.6-16.7-4.8-20.5-13.6c0,0,0,0,0-0.1c-0.1-0.2-0.2-0.4-0.3-0.6
			c-0.1-0.1-0.1-0.1-0.2-0.2c-1.4-2.1-4.2-3.1-6.6-2c-2.8,1.2-4,4.4-2.8,7.1c0.3,0.8,0.9,1.3,1.2,2.1c1.7,2.2,2.7,4.8,2.8,7.5
			c0.4,8.4-7.1,15.6-16.7,16.2c-10.2,0.5-15.6-7.4-17.6-10.9c-7.2-12.8-21-26.6-37.8-27c-16.2-0.4-31.6,11.1-46.1,34.1l0,0
			c-5.2,7.8-11,11.6-17.8,11.2c-9.6-0.6-17.1-7.8-16.7-16.2c0.1-2.7,1.1-5.3,2.8-7.5c0.4-0.7,0.9-1.3,1.2-2c1.2-2.8-0.1-5.9-2.8-7.1
			c-2.5-1.1-5.1-0.1-6.6,2c-0.1,0.1-0.2,0.1-0.2,0.2c-0.2,0.3-0.3,0.6-0.5,0.9c-3.9,8.6-11.8,14-20.4,13.4
			c-11.9-0.7-21.1-12.2-20.5-25.6c0.1-2.5,0.7-4.9,1.5-7.3c0.5-0.3,1.1-0.7,1.5-1.2c1.5-2,1.3-4.5,0-6.4c-0.5-1.3-1.4-2.4-2.7-3
			c-0.1-0.1-0.3-0.1-0.4-0.1c-7.3-6.5-11.5-15.7-11-25.4c0.3-5.8,2.3-11.3,5.5-16c1,1.4,2.4,2.4,4.1,2.4c0.3,0,0.6,0,0.8-0.1
			c2.9-0.5,5-3.3,4.5-6.2c-0.3-2.1-0.4-4.3-0.3-6.4c0.4-1.1,0.5-2.4,0.2-3.6c0.9-9.6,5.1-18.4,11.8-24.5c5.9-5.3,13.3-8,20.9-7.9
			c-0.1,2.3,0,4.6,0.2,6.9c0.3,2.8,2.6,4.9,5.4,4.9c0.2,0,0.4,0,0.6,0c3-0.3,5.1-3,4.8-6c-0.2-2-0.3-4-0.2-6.1
			c0.5-10.3,4.9-19.9,12.1-26.4c6.2-5.6,14.1-8.4,22-8c0.4,0,0.9,0.1,1.3,0.2c0.5,0.7,1.2,1.3,2,1.6c0.7,0.3,1.5,0.5,2.3,0.5
			c2.1,0,4-1.2,4.9-3.2c5.6-12.4,17.6-20.5,31.1-21.2c12.4-0.7,24.3,5.1,31.5,15.3c0.4,0.7,0.9,1.3,1.3,2c1,1.7,2.8,2.6,4.6,2.6
			c1,0,2-0.3,2.8-0.8c1.6-1,2.4-2.6,2.5-4.4c7.9-0.4,15.5,2.5,21.6,7.9c7.2,6.5,11.6,16.1,12.1,26.3c0.1,2.1,0,4.1-0.2,6.1
			c-0.3,3,1.9,5.6,4.9,5.9c0.2,0,0.4,0,0.6,0c2.7,0,5.1-2.1,5.4-4.9c0.2-2.2,0.2-4.5,0.2-6.8c7.5-0.1,15,2.6,20.9,7.9
			c6.7,6.1,10.9,14.9,11.8,24.5c-0.4,1.2-0.3,2.4,0.2,3.5c0,2.2,0,4.4-0.3,6.5c-0.4,3,1.6,5.7,4.6,6.2c0.3,0,0.5,0.1,0.8,0.1
			c1.8,0,3.1-1,4.1-2.4c3.2,4.7,5.2,10.2,5.5,16C390.9,188.2,386.7,197.5,379.4,204z"/>
	</g>
</g>
</svg>
